<?xml version="1.0" encoding="utf-8"?><svg width="100" height="100" xmlns="http://www.w3.org/2000/svg"><rect width="100%" height="100%" fill="#FFA162" /><path stroke="#FFFFFF" fill="#FFFFFF" d="M159.20001 266.8625L 159.20001 266.8625C 136.55835 260.3542 120.08125 252.35625 109.76875 242.86874L 109.76875 242.86874L 109.76875 242.86874C 99.45625 233.38124 94.3 221.67084 94.3 207.7375L 94.3 207.7375L 94.3 207.7375C 94.3 191.97083 100.60209 178.93124 113.20625 168.61874L 113.20625 168.61874L 113.20625 168.61874C 125.810425 158.30624 142.19583 153.15 162.36252 153.15L 162.36252 153.15L 162.36252 153.15C 176.11252 153.15 188.37292 155.80832 199.14377 161.125L 199.14377 161.125L 199.14377 161.125C 209.9146 166.44165 218.25627 173.775 224.16876 183.125L 224.16876 183.125L 224.16876 183.125C 230.08127 192.47499 233.03752 202.69583 233.03752 213.78749L 233.03752 213.78749L 206.50002 213.78749L 206.50002 213.78749C 206.50002 201.6875 202.65002 192.17708 194.95001 185.25624L 194.95001 185.25624L 194.95001 185.25624C 187.25002 178.3354 176.38751 174.87498 162.36252 174.87498L 162.36252 174.87498L 162.36252 174.87498C 149.34584 174.87498 139.19376 177.73956 131.90625 183.46875L 131.90625 183.46875L 131.90625 183.46875C 124.61876 189.1979 120.975006 197.15 120.975006 207.325L 120.975006 207.325L 120.975006 207.325C 120.975006 215.48334 124.435425 222.38126 131.35626 228.01874L 131.35626 228.01874L 131.35626 228.01874C 138.2771 233.65625 150.05626 238.81248 166.69376 243.48749L 166.69376 243.48749L 166.69376 243.48749C 183.33127 248.16249 196.34793 253.31876 205.74376 258.95624L 205.74376 258.95624L 205.74376 258.95624C 215.13959 264.59375 222.10626 271.17084 226.64377 278.6875L 226.64377 278.6875L 226.64377 278.6875C 231.18126 286.20416 233.45001 295.05 233.45001 305.225L 233.45001 305.225L 233.45001 305.225C 233.45001 321.45 227.12502 334.44376 214.475 344.20624L 214.475 344.20624L 214.475 344.20624C 201.82501 353.96875 184.9125 358.85 163.73752 358.85L 163.73752 358.85L 163.73752 358.85C 149.98752 358.85 137.15417 356.2146 125.23751 350.94376L 125.23751 350.94376L 125.23751 350.94376C 113.32085 345.6729 104.131256 338.45416 97.668755 329.2875L 97.668755 329.2875L 97.668755 329.2875C 91.20625 320.12085 87.975006 309.71667 87.975006 298.075L 87.975006 298.075L 114.51251 298.075L 114.51251 298.075C 114.51251 310.175 118.98126 319.73126 127.91876 326.74377L 127.91876 326.74377L 127.91876 326.74377C 136.85626 333.75626 148.79584 337.2625 163.73752 337.2625L 163.73752 337.2625L 163.73752 337.2625C 177.67084 337.2625 188.35 334.42084 195.77502 328.73752L 195.77502 328.73752L 195.77502 328.73752C 203.20001 323.0542 206.91252 315.30835 206.91252 305.5L 206.91252 305.5L 206.91252 305.5C 206.91252 295.69165 203.47502 288.10626 196.60002 282.74377L 196.60002 282.74377L 196.60002 282.74377C 189.725 277.38126 177.25835 272.08752 159.20001 266.8625" /><path stroke="#FFFFFF" fill="#FFFFFF" d="M377.825 303.85L 293.95 303.85L 275.1125 356.1L 247.88751 356.1L 324.33752 155.9L 347.4375 155.9L 424.025 356.1L 396.93753 356.1" /><path stroke="#FFA162" fill="#FFA162" d="M301.92502 282.125L 369.98752 282.125L 335.8875 188.4875" /></svg>