<svg width="88" height="44" viewBox="0 0 88 44" fill="none" xmlns="http://www.w3.org/2000/svg">
<path d="M76.9045 21.7725C76.5507 22.1435 76.152 22.5485 75.6817 23.0125C75.2775 23.4295 74.1546 24.4785 72.4002 25.3915C72.3635 25.4105 72.3287 25.4275 72.292 25.4465C72.0528 25.5685 71.8016 25.6855 71.5404 25.8005C71.534 25.8025 71.5276 25.8065 71.523 25.8085C70.8538 26.0995 70.1114 26.3555 69.2983 26.5535C69.2506 26.5655 69.203 26.5765 69.1571 26.5885C69.0013 26.6245 68.8427 26.6595 68.6823 26.6915C67.0929 27.0095 66.0003 26.9525 66.0003 26.9525C66.0003 26.9525 64.9076 27.0095 63.3173 26.6905C63.1569 26.6585 62.9983 26.6235 62.8424 26.5875C62.7957 26.5765 62.748 26.5645 62.7013 26.5525C61.8882 26.3545 61.1467 26.0975 60.4766 25.8075C60.472 25.8055 60.4656 25.8015 60.4592 25.7995C60.198 25.6855 59.9459 25.5675 59.7076 25.4455C59.6718 25.4265 59.6361 25.4095 59.5994 25.3905C57.845 24.4775 56.7221 23.4285 56.3179 23.0115C55.8476 22.5485 55.4489 22.1425 55.0951 21.7715C54.3498 22.3935 57.9861 29.7045 66.0003 29.7045C74.0144 29.7045 77.6516 22.3935 76.9045 21.7725Z" fill="#666666"/>
<path d="M22 29.5C19.5958 29.5058 17.2478 28.7727 15.274 27.4C13.3456 26.0634 11.858 24.1838 11 22C11.8681 19.7898 13.3818 17.8924 15.3439 16.555C17.306 15.2176 19.6255 14.5023 22 14.5023C24.3745 14.5023 26.694 15.2176 28.6561 16.555C30.6182 17.8924 32.1319 19.7898 33 22C32.1423 24.1837 30.655 26.0633 28.727 27.4C26.7529 28.7729 24.4046 29.506 22 29.5V29.5ZM22 17C21.0111 17 20.0444 17.2932 19.2221 17.8427C18.3999 18.3921 17.759 19.173 17.3806 20.0866C17.0022 21.0002 16.9031 22.0056 17.0961 22.9755C17.289 23.9454 17.7652 24.8363 18.4645 25.5355C19.1637 26.2348 20.0546 26.711 21.0245 26.9039C21.9945 27.0969 22.9998 26.9978 23.9134 26.6194C24.827 26.241 25.6079 25.6001 26.1573 24.7779C26.7068 23.9556 27 22.9889 27 22C26.9987 20.6743 26.4715 19.4033 25.5341 18.4659C24.5967 17.5285 23.3257 17.0013 22 17V17ZM22 25C21.4067 25 20.8266 24.8241 20.3333 24.4944C19.8399 24.1648 19.4554 23.6962 19.2284 23.1481C19.0013 22.5999 18.9419 21.9967 19.0576 21.4147C19.1734 20.8328 19.4591 20.2982 19.8787 19.8787C20.2982 19.4591 20.8328 19.1734 21.4147 19.0576C21.9967 18.9419 22.5999 19.0013 23.1481 19.2284C23.6962 19.4554 24.1648 19.8399 24.4944 20.3333C24.8241 20.8266 25 21.4067 25 22C25 22.7957 24.6839 23.5587 24.1213 24.1213C23.5587 24.6839 22.7956 25 22 25Z" fill="black" fill-opacity="0.6"/>
</svg>
